<?xml version="1.0" encoding="utf-8"?><svg xmlns="http://www.w3.org/2000/svg" xmlns:xlink="http://www.w3.org/1999/xlink"><symbol viewBox="0 0 451.847 451.847" id="arrow-down" xmlns="http://www.w3.org/2000/svg"><path d="M225.923 354.706c-8.098 0-16.195-3.092-22.369-9.263L9.27 151.157c-12.359-12.359-12.359-32.397 0-44.751 12.354-12.354 32.388-12.354 44.748 0l171.905 171.915 171.906-171.909c12.359-12.354 32.391-12.354 44.744 0 12.365 12.354 12.365 32.392 0 44.751L248.292 345.449c-6.177 6.172-14.274 9.257-22.369 9.257z"/></symbol><symbol viewBox="0 0 513.001 513.001" id="call-back" xmlns="http://www.w3.org/2000/svg"><path d="M101.11 77.32c-6.5-8.94-4.52-21.45 4.41-27.94 8.931-6.5 21.44-4.53 27.94 4.4s4.53 21.44-4.41 27.94a19.868 19.868 0 01-11.75 3.83c-6.179 0-12.27-2.86-16.19-8.23zM25.331 202.521c2.05.66 4.13.98 6.18.98 8.43 0 16.27-5.37 19.02-13.82 3.41-10.51-2.34-21.79-12.84-25.2-10.5-3.42-21.79 2.33-25.199 12.83-3.422 10.509 2.328 21.789 12.839 25.21zM183.05 52.001c2.05 0 4.13-.32 6.18-.99 10.5-3.41 16.261-14.69 12.84-25.2-3.409-10.5-14.68-16.25-25.189-12.84-10.51 3.41-16.26 14.69-12.851 25.2 2.75 8.449 10.591 13.819 19.02 13.83zM53.3 133.92c3.56 2.59 7.67 3.83 11.76 3.83 6.17 0 12.271-2.85 16.181-8.23 6.5-8.93 4.529-21.44-4.4-27.94s-21.44-4.53-27.94 4.4c-6.501 8.93-4.53 21.44 4.399 27.94zM.39 260.41c.13.63.29 1.27.48 1.9a19.854 19.854 0 001.5 3.61c.3.57.64 1.14 1 1.68.359.55.75 1.08 1.17 1.58.41.51.859 1 1.319 1.46s.95.91 1.46 1.32c.5.41 1.03.81 1.58 1.17.54.36 1.11.7 1.681 1 .569.31 1.17.59 1.77.84a20.265 20.265 0 003.74 1.14c.639.13 1.3.22 1.939.29.66.07 1.32.1 1.971.1.649 0 1.31-.03 1.97-.1.64-.07 1.3-.16 1.94-.29a20.157 20.157 0 003.739-1.14c.601-.25 1.2-.53 1.771-.84.57-.3 1.14-.64 1.68-1 .55-.36 1.08-.76 1.58-1.17.51-.41 1-.86 1.46-1.32s.91-.95 1.32-1.46c.41-.5.81-1.03 1.17-1.58.36-.54.7-1.11 1-1.68.31-.57.59-1.17.84-1.77a20.157 20.157 0 001.139-3.74c.131-.64.221-1.3.29-1.94.061-.66.101-1.32.101-1.97 0-.65-.04-1.31-.101-1.97-.069-.64-.159-1.3-.29-1.94-.13-.63-.29-1.27-.479-1.9-.19-.62-.41-1.24-.66-1.84-.25-.6-.53-1.2-.84-1.77-.3-.57-.64-1.14-1-1.68-.36-.55-.76-1.08-1.17-1.58-.41-.51-.86-1-1.32-1.46s-.95-.91-1.46-1.32c-.5-.42-1.03-.81-1.58-1.17-.54-.36-1.109-.7-1.68-1-.57-.31-1.17-.59-1.771-.84a20.157 20.157 0 00-3.739-1.14c-.641-.13-1.301-.22-1.94-.29a19.95 19.95 0 00-3.94 0c-.64.07-1.3.16-1.939.29a20.265 20.265 0 00-3.74 1.14c-.6.25-1.2.53-1.77.84-.57.3-1.141.64-1.681 1-.55.36-1.08.75-1.58 1.17-.51.41-1 .86-1.46 1.32s-.909.95-1.319 1.46c-.42.5-.811 1.03-1.17 1.58-.36.54-.7 1.11-1 1.68a19.854 19.854 0 00-1.5 3.61c-.19.63-.351 1.27-.48 1.9-.13.64-.229 1.3-.29 1.94-.07.66-.1 1.32-.1 1.97 0 .65.029 1.31.1 1.97.06.64.159 1.301.289 1.94zM493.001 46.501c-11.046 0-20 8.954-20 20v54.105c-19.789-31.57-46.29-58.543-77.844-79.014C353.719 14.71 305.6.501 256.001.501c-.753 0-1.494.05-2.226.131a19.82 19.82 0 00-7.722 2.535c-.337.192-.67.393-.994.604-.676.443-1.325.923-1.94 1.443-.409.341-.806.701-1.181 1.074l-.151.151c-.37.373-.728.767-1.066 1.173a20.047 20.047 0 00-1.468 1.978 19.81 19.81 0 00-.581.957 19.83 19.83 0 00-2.539 7.726c-.01.088-.023.175-.032.263-.07.659-.099 1.317-.099 1.966 0 .648.029 1.307.099 1.965.009.089.022.177.033.266a19.836 19.836 0 002.539 7.725c.183.32.373.635.573.944a20.144 20.144 0 002.532 3.153l.171.171c.372.368.764.725 1.168 1.062a19.1 19.1 0 001.457 1.116c.167.116.335.23.505.342.316.205.639.4.967.587a19.856 19.856 0 007.713 2.537c.098.011.195.025.293.035.653.068 1.306.098 1.949.098 75.638 0 145.822 40.127 184.685 103.931l-45.715.069c-11.046.017-19.986 8.984-19.97 20.03.017 11.036 8.968 19.97 19.999 19.97h.031l58.505-.088h.194c15.823 0 30.645-6.109 41.753-17.218 11.363-11.363 17.584-26.618 17.518-42.871V66.501c0-11.046-8.955-20-20-20zM487.67 310.49c-10.5-3.42-21.79 2.33-25.2 12.83-3.41 10.51 2.33 21.79 12.84 25.21 2.05.66 4.141.98 6.19.98 8.43 0 16.27-5.37 19.01-13.82 3.41-10.51-2.33-21.79-12.84-25.2zm-163.9 151.5c-10.51 3.41-16.26 14.69-12.85 25.2 2.75 8.45 10.59 13.83 19.02 13.83 2.051 0 4.13-.32 6.181-.99 10.51-3.41 16.26-14.69 12.85-25.19-3.411-10.51-14.691-16.26-25.201-12.85zm135.931-82.91c-8.931-6.5-21.44-4.53-27.94 4.4s-4.54 21.44 4.39 27.94a19.994 19.994 0 0011.761 3.83c6.18 0 12.27-2.85 16.189-8.23 6.489-8.93 4.529-21.44-4.4-27.94zm-75.761 52.2c-8.93 6.5-10.899 19.01-4.399 27.94 3.92 5.38 10.01 8.23 16.189 8.23 4.08 0 8.2-1.24 11.75-3.83 8.931-6.5 10.9-19.01 4.4-27.94-6.49-8.929-19-10.9-27.94-4.4zm128.67-178.69c-.13-.63-.29-1.27-.479-1.9-.19-.62-.41-1.24-.66-1.84-.25-.6-.53-1.2-.84-1.77-.311-.57-.64-1.14-1-1.68-.36-.55-.76-1.08-1.17-1.58-.41-.51-.86-1-1.32-1.46s-.95-.91-1.46-1.32c-.5-.41-1.03-.81-1.58-1.17-.54-.36-1.109-.7-1.68-1-.57-.31-1.17-.59-1.771-.84a20.157 20.157 0 00-3.739-1.14c-.641-.13-1.301-.22-1.94-.29a19.95 19.95 0 00-3.94 0c-.64.07-1.3.16-1.939.29a20.265 20.265 0 00-3.74 1.14c-.6.25-1.2.53-1.77.84-.57.3-1.141.64-1.681 1-.55.36-1.08.76-1.58 1.17-.51.41-1 .86-1.46 1.32s-.909.95-1.319 1.46c-.42.5-.811 1.03-1.17 1.58-.36.54-.7 1.11-1 1.68a19.854 19.854 0 00-1.5 3.61c-.19.63-.351 1.27-.48 1.9-.13.64-.229 1.3-.29 1.94-.07.66-.1 1.32-.1 1.97 0 5.26 2.13 10.42 5.859 14.14.46.46.95.91 1.46 1.32.5.41 1.03.81 1.58 1.17.54.36 1.11.7 1.681 1 .569.31 1.17.59 1.77.84a20.265 20.265 0 003.74 1.14c.64.13 1.3.23 1.939.29.66.07 1.32.1 1.971.1.649 0 1.31-.03 1.97-.1.64-.06 1.3-.16 1.94-.29a20.157 20.157 0 003.739-1.14c.601-.25 1.2-.53 1.771-.84.57-.3 1.14-.64 1.68-1 .55-.36 1.08-.76 1.58-1.17.51-.41 1-.86 1.46-1.32 3.72-3.72 5.86-8.87 5.86-14.14 0-.65-.04-1.31-.101-1.97-.07-.64-.16-1.3-.291-1.94zM277.001 492.5c0-.636-.03-1.282-.098-1.928-.01-.11-.025-.218-.038-.328a19.832 19.832 0 00-2.536-7.701 19.956 19.956 0 00-.571-.941 22.34 22.34 0 00-.366-.542 19.045 19.045 0 00-1.12-1.46 18.128 18.128 0 00-1.239-1.342 18.208 18.208 0 00-1.125-1.022 18.683 18.683 0 00-1.464-1.124 19.714 19.714 0 00-1.483-.938 19.822 19.822 0 00-7.674-2.533 20.078 20.078 0 00-2.288-.14c-75.639 0-145.822-40.127-184.685-103.931l45.715-.069c11.046-.017 19.986-8.985 19.97-20.03-.017-11.036-8.968-19.97-19.999-19.97h-.031l-58.504.089h-.195c-15.824 0-30.644 6.109-41.752 17.217C6.156 357.169-.066 372.423.001 388.677V446.5c0 11.046 8.954 20 20 20s20-8.954 20-20v-54.104c19.789 31.571 46.29 58.543 77.844 79.013 41.429 26.876 89.536 41.085 139.125 41.091l.032.001c.648 0 1.306-.03 1.965-.1.089-.009.176-.022.265-.032a19.837 19.837 0 007.721-2.536c.328-.187.651-.382.967-.587.688-.45 1.348-.937 1.973-1.466.399-.333.785-.684 1.152-1.047l.189-.19a19.08 19.08 0 001.047-1.151c.093-.111.186-.221.277-.334a22.576 22.576 0 001.192-1.644c.205-.314.398-.636.584-.963a19.803 19.803 0 002.532-7.696c.012-.108.027-.216.038-.324a19.06 19.06 0 00.097-1.931zm23.08-190.24l-18.227 18.092s-23.58-10.501-50.249-37.17l-1.286-1.284c-26.669-26.669-37.17-50.249-37.17-50.249l18.092-18.228c20.605-21.098 8.288-42.328-12.184-63.557-10.217-10.596-26.988-11.2-37.942-1.368l-.28.251c-12.854 12.855-18.935 30.734-18.834 50.98.18 36.051 19.96 79.607 55.987 115.662 36.056 36.028 79.611 55.808 115.662 55.987l.125.124c20.246.101 38.125-5.979 50.98-18.834l.251-.28c9.832-10.954 9.228-27.725-1.368-37.942-21.229-20.471-42.459-32.789-63.557-12.184z"/></symbol><symbol viewBox="0 0 512.001 512.001" id="cancel" xmlns="http://www.w3.org/2000/svg"><path d="M284.286 256.002L506.143 34.144c7.811-7.811 7.811-20.475 0-28.285-7.811-7.81-20.475-7.811-28.285 0L256 227.717 34.143 5.859c-7.811-7.811-20.475-7.811-28.285 0-7.81 7.811-7.811 20.475 0 28.285l221.857 221.857L5.858 477.859c-7.811 7.811-7.811 20.475 0 28.285a19.938 19.938 0 0014.143 5.857 19.94 19.94 0 0014.143-5.857L256 284.287l221.857 221.857c3.905 3.905 9.024 5.857 14.143 5.857s10.237-1.952 14.143-5.857c7.811-7.811 7.811-20.475 0-28.285L284.286 256.002z"/></symbol><symbol viewBox="0 0 24 24" stroke-width="2" stroke-linecap="round" stroke-linejoin="round" class="dfeather dfeather-check" id="check" xmlns="http://www.w3.org/2000/svg"><path d="M20 6L9 17l-5-5"/></symbol><symbol viewBox="0 0 384 384" id="dots-vertical" xmlns="http://www.w3.org/2000/svg"><circle cx="192" cy="42.667" r="42.667"/><circle cx="192" cy="192" r="42.667"/><circle cx="192" cy="341.333" r="42.667"/></symbol><symbol viewBox="0 0 167.657 167.657" id="facebook" xmlns="http://www.w3.org/2000/svg"><path d="M83.829.349C37.532.349 0 37.881 0 84.178c0 41.523 30.222 75.911 69.848 82.57v-65.081H49.626v-23.42h20.222V60.978c0-20.037 12.238-30.956 30.115-30.956 8.562 0 15.92.638 18.056.919v20.944l-12.399.006c-9.72 0-11.594 4.618-11.594 11.397v14.947h23.193l-3.025 23.42H94.026v65.653c41.476-5.048 73.631-40.312 73.631-83.154 0-46.273-37.532-83.805-83.828-83.805z"/></symbol><symbol viewBox="0 0 1792 1792" id="facebook-f" xmlns="http://www.w3.org/2000/svg"><path d="M1343 12v264h-157q-86 0-116 36t-30 108v189h293l-39 296h-254v759H734V905H479V609h255V391q0-186 104-288.5T1115 0q147 0 228 12z"/></symbol><symbol viewBox="0 0 1792 1792" id="instagram" xmlns="http://www.w3.org/2000/svg"><path d="M1152 896q0-106-75-181t-181-75-181 75-75 181 75 181 181 75 181-75 75-181zm138 0q0 164-115 279t-279 115-279-115-115-279 115-279 279-115 279 115 115 279zm108-410q0 38-27 65t-65 27-65-27-27-65 27-65 65-27 65 27 27 65zM896 266q-7 0-76.5-.5t-105.5 0-96.5 3-103 10T443 297q-50 20-88 58t-58 88q-11 29-18.5 71.5t-10 103-3 96.5 0 105.5.5 76.5-.5 76.5 0 105.5 3 96.5 10 103T297 1349q20 50 58 88t88 58q29 11 71.5 18.5t103 10 96.5 3 105.5 0 76.5-.5 76.5.5 105.5 0 96.5-3 103-10 71.5-18.5q50-20 88-58t58-88q11-29 18.5-71.5t10-103 3-96.5 0-105.5-.5-76.5.5-76.5 0-105.5-3-96.5-10-103T1495 443q-20-50-58-88t-88-58q-29-11-71.5-18.5t-103-10-96.5-3-105.5 0-76.5.5zm768 630q0 229-5 317-10 208-124 322t-322 124q-88 5-317 5t-317-5q-208-10-322-124t-124-322q-5-88-5-317t5-317q10-208 124-322t322-124q88-5 317-5t317 5q208 10 322 124t124 322q5 88 5 317z"/></symbol><symbol viewBox="0 0 512.001 512.001" id="laptop" xmlns="http://www.w3.org/2000/svg"><path d="M504.53 375.058h-14.984V111.17c0-16.925-13.77-30.695-30.696-30.695H53.149c-16.926 0-30.696 13.77-30.696 30.695v263.889H7.47a7.47 7.47 0 00-7.47 7.47v8.943c0 22.086 17.968 40.054 40.054 40.054h327.989a7.47 7.47 0 100-14.939H40.054c-13.849 0-25.115-11.267-25.115-25.115v-1.474h178.32v13.294a7.47 7.47 0 007.47 7.47h110.543a7.47 7.47 0 007.47-7.47v-13.294h178.32v1.474c0 13.849-11.267 25.115-25.115 25.115h-51.118a7.47 7.47 0 000 14.939h51.118c22.086 0 40.054-17.969 40.054-40.054v-8.943a7.471 7.471 0 00-7.471-7.471zm-200.728 20.764h-95.604v-5.825h95.604v5.825zm170.806-21.394H37.393V111.17c0-8.688 7.068-15.756 15.757-15.756h405.701c8.688 0 15.757 7.068 15.757 15.756v263.258z"/><path d="M440.307 109.615H71.693c-12.182 0-22.093 9.911-22.093 22.094v79.475c0 4.126 3.344 7.47 7.47 7.47s7.47-3.344 7.47-7.47v-79.475c0-3.945 3.209-7.154 7.153-7.154h368.613c3.944 0 7.153 3.21 7.153 7.154v214.509H64.54v-81.254c0-4.126-3.344-7.47-7.47-7.47s-7.47 3.344-7.47 7.47v88.723a7.47 7.47 0 007.47 7.47h397.86a7.47 7.47 0 007.47-7.47V131.708c-.001-12.183-9.912-22.093-22.093-22.093z"/></symbol><symbol viewBox="0 0 1792 1792" id="linkedin" xmlns="http://www.w3.org/2000/svg"><path d="M477 625v991H147V625h330zm21-306q1 73-50.5 122T312 490h-2q-82 0-132-49t-50-122q0-74 51.5-122.5T314 148t133 48.5T498 319zm1166 729v568h-329v-530q0-105-40.5-164.5T1168 862q-63 0-105.5 34.5T999 982q-11 30-11 81v553H659q2-399 2-647t-1-296l-1-48h329v144h-2q20-32 41-56t56.5-52 87-43.5T1285 602q171 0 275 113.5t104 332.5z"/></symbol><symbol viewBox="0 0 1792 1792" id="mail" xmlns="http://www.w3.org/2000/svg"><path d="M1792 710v794q0 66-47 113t-113 47H160q-66 0-113-47T0 1504V710q44 49 101 87 362 246 497 345 57 42 92.5 65.5t94.5 48 110 24.5h2q51 0 110-24.5t94.5-48 92.5-65.5q170-123 498-345 57-39 100-87zm0-294q0 79-49 151t-122 123q-376 261-468 325-10 7-42.5 30.5t-54 38-52 32.5-57.5 27-50 9h-2q-23 0-50-9t-57.5-27-52-32.5-54-38T639 1015q-91-64-262-182.5T172 690q-62-42-117-115.5T0 438q0-78 41.5-130T160 256h1472q65 0 112.5 47t47.5 113z"/></symbol><symbol viewBox="0 0 512 512" id="mobile-phone" xmlns="http://www.w3.org/2000/svg"><path d="M366 0H146c-20.678 0-37.5 16.822-37.5 37.5v437c0 20.678 16.822 37.5 37.5 37.5h220c20.678 0 37.5-16.822 37.5-37.5v-437C403.5 16.822 386.678 0 366 0zm22.5 407H176a7.5 7.5 0 000 15h212.5v52.5c0 12.407-10.093 22.5-22.5 22.5H146c-12.407 0-22.5-10.093-22.5-22.5V422H146a7.5 7.5 0 000-15h-22.5V75h265v332zm0-347h-265V37.5c0-12.407 10.093-22.5 22.5-22.5h220c12.407 0 22.5 10.093 22.5 22.5V60z"/><path d="M286 30h-30a7.5 7.5 0 000 15h30a7.5 7.5 0 000-15zm-30 407c-12.407 0-22.5 10.093-22.5 22.5S243.593 482 256 482s22.5-10.093 22.5-22.5S268.407 437 256 437zm0 30c-4.136 0-7.5-3.364-7.5-7.5s3.364-7.5 7.5-7.5 7.5 3.364 7.5 7.5-3.364 7.5-7.5 7.5z"/><circle cx="226" cy="37.5" r="7.5"/></symbol><symbol viewBox="0 0 512 512" id="monitor" xmlns="http://www.w3.org/2000/svg"><path d="M476 48H36A28.031 28.031 0 008 76v296a28.031 28.031 0 0028 28h162.24l-4.8 24H160a8 8 0 00-8 8v24a8 8 0 008 8h192a8 8 0 008-8v-24a8 8 0 00-8-8h-33.44l-4.8-24H476a28.031 28.031 0 0028-28V76a28.031 28.031 0 00-28-28zM344 440v8H168v-8zm-134.24-16l4.8-24h82.88l4.8 24zM488 372a12.01 12.01 0 01-12 12H36a12.01 12.01 0 01-12-12v-20h464zm0-36H24V76a12.01 12.01 0 0112-12h440a12.01 12.01 0 0112 12z"/><path d="M264 360h-16a8 8 0 000 16h16a8 8 0 000-16z"/></symbol><symbol viewBox="0 0 1792 1792" id="phone" xmlns="http://www.w3.org/2000/svg"><path d="M1600 1240q0 27-10 70.5t-21 68.5q-21 50-122 106-94 51-186 51-27 0-53-3.5t-57.5-12.5-47-14.5-55.5-20.5-49-18q-98-35-175-83-127-79-264-216T344 904q-48-77-83-175-3-9-18-49t-20.5-55.5-14.5-47-12.5-57.5-3.5-53q0-92 51-186 56-101 106-122 25-11 68.5-21t70.5-10q14 0 21 3 18 6 53 76 11 19 30 54t35 63.5 31 53.5q3 4 17.5 25t21.5 35.5 7 28.5q0 20-28.5 50t-62 55-62 53-28.5 46q0 9 5 22.5t8.5 20.5 14 24 11.5 19q76 137 174 235t235 174q2 1 19 11.5t24 14 20.5 8.5 22.5 5q18 0 46-28.5t53-62 55-62 50-28.5q14 0 28.5 7t35.5 21.5 25 17.5q25 15 53.5 31t63.5 35 54 30q70 35 76 53 3 7 3 21z"/></symbol><symbol viewBox="0 0 473.806 473.806" id="phone-call" xmlns="http://www.w3.org/2000/svg"><path d="M374.456 293.506c-9.7-10.1-21.4-15.5-33.8-15.5-12.3 0-24.1 5.3-34.2 15.4l-31.6 31.5c-2.6-1.4-5.2-2.7-7.7-4-3.6-1.8-7-3.5-9.9-5.3-29.6-18.8-56.5-43.3-82.3-75-12.5-15.8-20.9-29.1-27-42.6 8.2-7.5 15.8-15.3 23.2-22.8 2.8-2.8 5.6-5.7 8.4-8.5 21-21 21-48.2 0-69.2l-27.3-27.3c-3.1-3.1-6.3-6.3-9.3-9.5-6-6.2-12.3-12.6-18.8-18.6-9.7-9.6-21.3-14.7-33.5-14.7s-24 5.1-34 14.7l-.2.2-34 34.3c-12.8 12.8-20.1 28.4-21.7 46.5-2.4 29.2 6.2 56.4 12.8 74.2 16.2 43.7 40.4 84.2 76.5 127.6 43.8 52.3 96.5 93.6 156.7 122.7 23 10.9 53.7 23.8 88 26 2.1.1 4.3.2 6.3.2 23.1 0 42.5-8.3 57.7-24.8.1-.2.3-.3.4-.5 5.2-6.3 11.2-12 17.5-18.1 4.3-4.1 8.7-8.4 13-12.9 9.9-10.3 15.1-22.3 15.1-34.6 0-12.4-5.3-24.3-15.4-34.3l-54.9-55.1zm35.8 105.3c-.1 0-.1.1 0 0-3.9 4.2-7.9 8-12.2 12.2-6.5 6.2-13.1 12.7-19.3 20-10.1 10.8-22 15.9-37.6 15.9-1.5 0-3.1 0-4.6-.1-29.7-1.9-57.3-13.5-78-23.4-56.6-27.4-106.3-66.3-147.6-115.6-34.1-41.1-56.9-79.1-72-119.9-9.3-24.9-12.7-44.3-11.2-62.6 1-11.7 5.5-21.4 13.8-29.7l34.1-34.1c4.9-4.6 10.1-7.1 15.2-7.1 6.3 0 11.4 3.8 14.6 7l.3.3c6.1 5.7 11.9 11.6 18 17.9 3.1 3.2 6.3 6.4 9.5 9.7l27.3 27.3c10.6 10.6 10.6 20.4 0 31-2.9 2.9-5.7 5.8-8.6 8.6-8.4 8.6-16.4 16.6-25.1 24.4-.2.2-.4.3-.5.5-8.6 8.6-7 17-5.2 22.7l.3.9c7.1 17.2 17.1 33.4 32.3 52.7l.1.1c27.6 34 56.7 60.5 88.8 80.8 4.1 2.6 8.3 4.7 12.3 6.7 3.6 1.8 7 3.5 9.9 5.3.4.2.8.5 1.2.7 3.4 1.7 6.6 2.5 9.9 2.5 8.3 0 13.5-5.2 15.2-6.9l34.2-34.2c3.4-3.4 8.8-7.5 15.1-7.5 6.2 0 11.3 3.9 14.4 7.3l.2.2 55.1 55.1c10.3 10.2 10.3 20.7.1 31.3zm-154.2-286.1c26.2 4.4 50 16.8 69 35.8s31.3 42.8 35.8 69c1.1 6.6 6.8 11.2 13.3 11.2.8 0 1.5-.1 2.3-.2 7.4-1.2 12.3-8.2 11.1-15.6-5.4-31.7-20.4-60.6-43.3-83.5s-51.8-37.9-83.5-43.3c-7.4-1.2-14.3 3.7-15.6 11s3.5 14.4 10.9 15.6zm217.2 96.3c-8.9-52.2-33.5-99.7-71.3-137.5s-85.3-62.4-137.5-71.3c-7.3-1.3-14.2 3.7-15.5 11-1.2 7.4 3.7 14.3 11.1 15.6 46.6 7.9 89.1 30 122.9 63.7 33.8 33.8 55.8 76.3 63.7 122.9 1.1 6.6 6.8 11.2 13.3 11.2.8 0 1.5-.1 2.3-.2 7.3-1.1 12.3-8.1 11-15.4z"/></symbol><symbol viewBox="0 0 512 512" id="right-arrow" xmlns="http://www.w3.org/2000/svg"><path d="M506.134 241.843l-.018-.019-104.504-104c-7.829-7.791-20.492-7.762-28.285.068-7.792 7.829-7.762 20.492.067 28.284L443.558 236H20c-11.046 0-20 8.954-20 20s8.954 20 20 20h423.557l-70.162 69.824c-7.829 7.792-7.859 20.455-.067 28.284 7.793 7.831 20.457 7.858 28.285.068l104.504-104 .018-.019c7.833-7.818 7.808-20.522-.001-28.314z"/></symbol><symbol viewBox="0 0 18 18" id="search" xmlns="http://www.w3.org/2000/svg"><path d="M16.681 18.096l-5.146-5.147a7.2 7.2 0 111.414-1.414l5.147 5.146zM7.2 2a5.2 5.2 0 100 10.4A5.2 5.2 0 007.2 2z"/></symbol><symbol viewBox="0 0 368 368" id="settings" xmlns="http://www.w3.org/2000/svg"><path d="M344 144h-29.952c-2.512-8.2-5.8-16.12-9.792-23.664l21.16-21.16c4.528-4.528 7.024-10.56 7.024-16.984 0-6.416-2.496-12.448-7.024-16.976l-22.64-22.64c-9.048-9.048-24.888-9.072-33.952 0l-21.16 21.16A135.753 135.753 0 00224 53.944V24c0-13.232-10.768-24-24-24h-32c-13.232 0-24 10.768-24 24v29.952c-8.2 2.52-16.12 5.8-23.664 9.792l-21.168-21.16c-9.36-9.36-24.592-9.36-33.952 0l-22.648 22.64c-9.352 9.36-9.352 24.592 0 33.952l21.16 21.168a135.753 135.753 0 00-9.792 23.664H24c-13.232 0-24 10.768-24 24v32C0 213.232 10.768 224 24 224h29.952c2.52 8.2 5.8 16.12 9.792 23.664l-21.16 21.168c-9.36 9.36-9.36 24.592 0 33.952l22.64 22.648c9.36 9.352 24.592 9.352 33.952 0l21.168-21.16a135.753 135.753 0 0023.664 9.792V344c0 13.232 10.768 24 24 24h32c13.232 0 24-10.768 24-24v-29.952c8.2-2.52 16.128-5.8 23.664-9.792l21.16 21.168c9.072 9.064 24.912 9.048 33.952 0l22.64-22.64c4.528-4.528 7.024-10.56 7.024-16.976 0-6.424-2.496-12.448-7.024-16.976l-21.16-21.168A135.753 135.753 0 00314.056 224H344c13.232 0 24-10.768 24-24v-32c0-13.232-10.768-24-24-24zm8 56c0 4.408-3.584 8-8 8h-36a8.002 8.002 0 00-7.744 6c-2.832 10.92-7.144 21.344-12.832 30.976a8.01 8.01 0 001.232 9.72l25.44 25.448a7.948 7.948 0 012.336 5.664c0 2.152-.832 4.16-2.336 5.664l-22.64 22.64c-3.008 3.008-8.312 3.008-11.328 0l-25.44-25.44c-2.576-2.584-6.576-3.08-9.728-1.232-9.616 5.68-20.04 10-30.968 12.824A7.988 7.988 0 00208 308v36c0 4.408-3.584 8-8 8h-32c-4.408 0-8-3.592-8-8v-36a8.002 8.002 0 00-6-7.744 119.948 119.948 0 01-30.976-12.824 7.915 7.915 0 00-4.064-1.112c-2.072 0-4.12.8-5.664 2.344l-25.44 25.44a8.025 8.025 0 01-11.328 0l-22.64-22.64c-3.128-3.128-3.128-8.208 0-11.328l25.44-25.44a7.99 7.99 0 001.232-9.72c-5.68-9.632-10-20.048-12.824-30.976A7.986 7.986 0 0060 208H24c-4.408 0-8-3.592-8-8v-32c0-4.408 3.592-8 8-8h36a8.002 8.002 0 007.744-6 119.948 119.948 0 0112.824-30.976 7.988 7.988 0 00-1.232-9.72l-25.44-25.44c-3.12-3.12-3.12-8.2 0-11.328l22.64-22.64c3.128-3.128 8.2-3.12 11.328 0l25.44 25.44a7.978 7.978 0 009.72 1.232c9.632-5.68 20.048-10 30.976-12.824A8.002 8.002 0 00160 60V24c0-4.408 3.592-8 8-8h32c4.416 0 8 3.592 8 8v36a8.002 8.002 0 006 7.744 119.827 119.827 0 0130.968 12.824c3.152 1.856 7.152 1.36 9.728-1.232l25.44-25.44c3.016-3.024 8.32-3.016 11.328 0l22.64 22.64c1.504 1.504 2.336 3.52 2.336 5.664s-.832 4.16-2.336 5.664l-25.44 25.44a8.002 8.002 0 00-1.232 9.72c5.688 9.632 10 20.048 12.832 30.976a7.986 7.986 0 007.736 6h36c4.416 0 8 3.592 8 8v32z"/><path d="M184 112c-39.696 0-72 32.304-72 72s32.304 72 72 72c39.704 0 72-32.304 72-72s-32.296-72-72-72zm0 128c-30.88 0-56-25.12-56-56s25.12-56 56-56c30.872 0 56 25.12 56 56s-25.128 56-56 56z"/></symbol><symbol viewBox="0 0 512.229 512.229" id="success" xmlns="http://www.w3.org/2000/svg"><path d="M99.564 156.4c.544 0 1.037-.4 1.256-1.019C115.012 113.3 164.103 90 205.677 105.52c.329.12.901-.073 1.219-.551 18.756-28.101 47.208-47.467 79.308-54.891-57.468-83.84-181.873-56.229-196.812 36.989-1.048 6.602-5.853 12.033-12.333 13.678-40.687 9.81-69.623 52.453-60.831 95.177C36.006 171.81 66.018 156.4 99.564 156.4zm339.453 32.733l-.001-.001c-12.764-3.092-22.216-13.376-24.079-26.203-13.655-90.485-131.527-117.054-182.623-40.995-8.111 12.152-23.297 17.236-36.923 12.362-26.067-9.719-56.866 4.886-65.761 31.278-4.527 12.792-16.609 21.385-30.066 21.385-102.423 4.242-102.376 150.179 0 154.399h80.272v-76.962c.807-20.273 29.759-20.257 30.559 0v21.016h99.543v-21.016c.807-20.273 29.759-20.257 30.559 0v76.962h80.272c90.992-1.943 106.203-129.071 18.248-152.225z"/><path d="M309.939 315.97h-99.543v25.256l.817.131h-31.376V497.03c.807 20.273 29.759 20.258 30.559 0v-16.041h99.543v16.041c.807 20.273 29.759 20.258 30.559 0V341.358h-30.559zm0 134.46h-99.543v-24.184h99.543zm0-54.743h-99.543v-23.901h99.543z"/></symbol><symbol viewBox="0 0 512 512" id="twitter" xmlns="http://www.w3.org/2000/svg"><path d="M512 97.248c-19.04 8.352-39.328 13.888-60.48 16.576 21.76-12.992 38.368-33.408 46.176-58.016-20.288 12.096-42.688 20.64-66.56 25.408C411.872 60.704 384.416 48 354.464 48c-58.112 0-104.896 47.168-104.896 104.992 0 8.32.704 16.32 2.432 23.936-87.264-4.256-164.48-46.08-216.352-109.792-9.056 15.712-14.368 33.696-14.368 53.056 0 36.352 18.72 68.576 46.624 87.232-16.864-.32-33.408-5.216-47.424-12.928v1.152c0 51.008 36.384 93.376 84.096 103.136-8.544 2.336-17.856 3.456-27.52 3.456-6.72 0-13.504-.384-19.872-1.792 13.6 41.568 52.192 72.128 98.08 73.12-35.712 27.936-81.056 44.768-130.144 44.768-8.608 0-16.864-.384-25.12-1.44C46.496 446.88 101.6 464 161.024 464c193.152 0 298.752-160 298.752-298.688 0-4.64-.16-9.12-.384-13.568 20.832-14.784 38.336-33.248 52.608-54.496z"/></symbol></svg>