<?xml version="1.0" encoding="utf-8"?><svg xmlns="http://www.w3.org/2000/svg" xmlns:xlink="http://www.w3.org/1999/xlink"><symbol viewBox="0 0 167.657 167.657" id="facebook" xmlns="http://www.w3.org/2000/svg"><path d="M83.829.349C37.532.349 0 37.881 0 84.178c0 41.523 30.222 75.911 69.848 82.57v-65.081H49.626v-23.42h20.222V60.978c0-20.037 12.238-30.956 30.115-30.956 8.562 0 15.92.638 18.056.919v20.944l-12.399.006c-9.72 0-11.594 4.618-11.594 11.397v14.947h23.193l-3.025 23.42H94.026v65.653c41.476-5.048 73.631-40.312 73.631-83.154 0-46.273-37.532-83.805-83.828-83.805z"/></symbol><symbol viewBox="0 0 512.001 512.001" id="laptop" xmlns="http://www.w3.org/2000/svg"><path d="M504.53 375.058h-14.984V111.17c0-16.925-13.77-30.695-30.696-30.695H53.149c-16.926 0-30.696 13.77-30.696 30.695v263.889H7.47a7.47 7.47 0 00-7.47 7.47v8.943c0 22.086 17.968 40.054 40.054 40.054h327.989a7.47 7.47 0 100-14.939H40.054c-13.849 0-25.115-11.267-25.115-25.115v-1.474h178.32v13.294a7.47 7.47 0 007.47 7.47h110.543a7.47 7.47 0 007.47-7.47v-13.294h178.32v1.474c0 13.849-11.267 25.115-25.115 25.115h-51.118a7.47 7.47 0 000 14.939h51.118c22.086 0 40.054-17.969 40.054-40.054v-8.943a7.471 7.471 0 00-7.471-7.471zm-200.728 20.764h-95.604v-5.825h95.604v5.825zm170.806-21.394H37.393V111.17c0-8.688 7.068-15.756 15.757-15.756h405.701c8.688 0 15.757 7.068 15.757 15.756v263.258z"/><path d="M440.307 109.615H71.693c-12.182 0-22.093 9.911-22.093 22.094v79.475c0 4.126 3.344 7.47 7.47 7.47s7.47-3.344 7.47-7.47v-79.475c0-3.945 3.209-7.154 7.153-7.154h368.613c3.944 0 7.153 3.21 7.153 7.154v214.509H64.54v-81.254c0-4.126-3.344-7.47-7.47-7.47s-7.47 3.344-7.47 7.47v88.723a7.47 7.47 0 007.47 7.47h397.86a7.47 7.47 0 007.47-7.47V131.708c-.001-12.183-9.912-22.093-22.093-22.093z"/></symbol><symbol viewBox="0 0 512 512" id="mobile-phone" xmlns="http://www.w3.org/2000/svg"><path d="M366 0H146c-20.678 0-37.5 16.822-37.5 37.5v437c0 20.678 16.822 37.5 37.5 37.5h220c20.678 0 37.5-16.822 37.5-37.5v-437C403.5 16.822 386.678 0 366 0zm22.5 407H176a7.5 7.5 0 000 15h212.5v52.5c0 12.407-10.093 22.5-22.5 22.5H146c-12.407 0-22.5-10.093-22.5-22.5V422H146a7.5 7.5 0 000-15h-22.5V75h265v332zm0-347h-265V37.5c0-12.407 10.093-22.5 22.5-22.5h220c12.407 0 22.5 10.093 22.5 22.5V60z"/><path d="M286 30h-30a7.5 7.5 0 000 15h30a7.5 7.5 0 000-15zm-30 407c-12.407 0-22.5 10.093-22.5 22.5S243.593 482 256 482s22.5-10.093 22.5-22.5S268.407 437 256 437zm0 30c-4.136 0-7.5-3.364-7.5-7.5s3.364-7.5 7.5-7.5 7.5 3.364 7.5 7.5-3.364 7.5-7.5 7.5z"/><circle cx="226" cy="37.5" r="7.5"/></symbol><symbol viewBox="0 0 512 512" id="monitor" xmlns="http://www.w3.org/2000/svg"><path d="M476 48H36A28.031 28.031 0 008 76v296a28.031 28.031 0 0028 28h162.24l-4.8 24H160a8 8 0 00-8 8v24a8 8 0 008 8h192a8 8 0 008-8v-24a8 8 0 00-8-8h-33.44l-4.8-24H476a28.031 28.031 0 0028-28V76a28.031 28.031 0 00-28-28zM344 440v8H168v-8zm-134.24-16l4.8-24h82.88l4.8 24zM488 372a12.01 12.01 0 01-12 12H36a12.01 12.01 0 01-12-12v-20h464zm0-36H24V76a12.01 12.01 0 0112-12h440a12.01 12.01 0 0112 12z"/><path d="M264 360h-16a8 8 0 000 16h16a8 8 0 000-16z"/></symbol><symbol viewBox="0 0 473.806 473.806" id="phone-call" xmlns="http://www.w3.org/2000/svg"><path d="M374.456 293.506c-9.7-10.1-21.4-15.5-33.8-15.5-12.3 0-24.1 5.3-34.2 15.4l-31.6 31.5c-2.6-1.4-5.2-2.7-7.7-4-3.6-1.8-7-3.5-9.9-5.3-29.6-18.8-56.5-43.3-82.3-75-12.5-15.8-20.9-29.1-27-42.6 8.2-7.5 15.8-15.3 23.2-22.8 2.8-2.8 5.6-5.7 8.4-8.5 21-21 21-48.2 0-69.2l-27.3-27.3c-3.1-3.1-6.3-6.3-9.3-9.5-6-6.2-12.3-12.6-18.8-18.6-9.7-9.6-21.3-14.7-33.5-14.7s-24 5.1-34 14.7l-.2.2-34 34.3c-12.8 12.8-20.1 28.4-21.7 46.5-2.4 29.2 6.2 56.4 12.8 74.2 16.2 43.7 40.4 84.2 76.5 127.6 43.8 52.3 96.5 93.6 156.7 122.7 23 10.9 53.7 23.8 88 26 2.1.1 4.3.2 6.3.2 23.1 0 42.5-8.3 57.7-24.8.1-.2.3-.3.4-.5 5.2-6.3 11.2-12 17.5-18.1 4.3-4.1 8.7-8.4 13-12.9 9.9-10.3 15.1-22.3 15.1-34.6 0-12.4-5.3-24.3-15.4-34.3l-54.9-55.1zm35.8 105.3c-.1 0-.1.1 0 0-3.9 4.2-7.9 8-12.2 12.2-6.5 6.2-13.1 12.7-19.3 20-10.1 10.8-22 15.9-37.6 15.9-1.5 0-3.1 0-4.6-.1-29.7-1.9-57.3-13.5-78-23.4-56.6-27.4-106.3-66.3-147.6-115.6-34.1-41.1-56.9-79.1-72-119.9-9.3-24.9-12.7-44.3-11.2-62.6 1-11.7 5.5-21.4 13.8-29.7l34.1-34.1c4.9-4.6 10.1-7.1 15.2-7.1 6.3 0 11.4 3.8 14.6 7l.3.3c6.1 5.7 11.9 11.6 18 17.9 3.1 3.2 6.3 6.4 9.5 9.7l27.3 27.3c10.6 10.6 10.6 20.4 0 31-2.9 2.9-5.7 5.8-8.6 8.6-8.4 8.6-16.4 16.6-25.1 24.4-.2.2-.4.3-.5.5-8.6 8.6-7 17-5.2 22.7l.3.9c7.1 17.2 17.1 33.4 32.3 52.7l.1.1c27.6 34 56.7 60.5 88.8 80.8 4.1 2.6 8.3 4.7 12.3 6.7 3.6 1.8 7 3.5 9.9 5.3.4.2.8.5 1.2.7 3.4 1.7 6.6 2.5 9.9 2.5 8.3 0 13.5-5.2 15.2-6.9l34.2-34.2c3.4-3.4 8.8-7.5 15.1-7.5 6.2 0 11.3 3.9 14.4 7.3l.2.2 55.1 55.1c10.3 10.2 10.3 20.7.1 31.3zm-154.2-286.1c26.2 4.4 50 16.8 69 35.8s31.3 42.8 35.8 69c1.1 6.6 6.8 11.2 13.3 11.2.8 0 1.5-.1 2.3-.2 7.4-1.2 12.3-8.2 11.1-15.6-5.4-31.7-20.4-60.6-43.3-83.5s-51.8-37.9-83.5-43.3c-7.4-1.2-14.3 3.7-15.6 11s3.5 14.4 10.9 15.6zm217.2 96.3c-8.9-52.2-33.5-99.7-71.3-137.5s-85.3-62.4-137.5-71.3c-7.3-1.3-14.2 3.7-15.5 11-1.2 7.4 3.7 14.3 11.1 15.6 46.6 7.9 89.1 30 122.9 63.7 33.8 33.8 55.8 76.3 63.7 122.9 1.1 6.6 6.8 11.2 13.3 11.2.8 0 1.5-.1 2.3-.2 7.3-1.1 12.3-8.1 11-15.4z"/></symbol><symbol viewBox="0 0 368 368" id="settings" xmlns="http://www.w3.org/2000/svg"><path d="M344 144h-29.952c-2.512-8.2-5.8-16.12-9.792-23.664l21.16-21.16c4.528-4.528 7.024-10.56 7.024-16.984 0-6.416-2.496-12.448-7.024-16.976l-22.64-22.64c-9.048-9.048-24.888-9.072-33.952 0l-21.16 21.16A135.753 135.753 0 00224 53.944V24c0-13.232-10.768-24-24-24h-32c-13.232 0-24 10.768-24 24v29.952c-8.2 2.52-16.12 5.8-23.664 9.792l-21.168-21.16c-9.36-9.36-24.592-9.36-33.952 0l-22.648 22.64c-9.352 9.36-9.352 24.592 0 33.952l21.16 21.168a135.753 135.753 0 00-9.792 23.664H24c-13.232 0-24 10.768-24 24v32C0 213.232 10.768 224 24 224h29.952c2.52 8.2 5.8 16.12 9.792 23.664l-21.16 21.168c-9.36 9.36-9.36 24.592 0 33.952l22.64 22.648c9.36 9.352 24.592 9.352 33.952 0l21.168-21.16a135.753 135.753 0 0023.664 9.792V344c0 13.232 10.768 24 24 24h32c13.232 0 24-10.768 24-24v-29.952c8.2-2.52 16.128-5.8 23.664-9.792l21.16 21.168c9.072 9.064 24.912 9.048 33.952 0l22.64-22.64c4.528-4.528 7.024-10.56 7.024-16.976 0-6.424-2.496-12.448-7.024-16.976l-21.16-21.168A135.753 135.753 0 00314.056 224H344c13.232 0 24-10.768 24-24v-32c0-13.232-10.768-24-24-24zm8 56c0 4.408-3.584 8-8 8h-36a8.002 8.002 0 00-7.744 6c-2.832 10.92-7.144 21.344-12.832 30.976a8.01 8.01 0 001.232 9.72l25.44 25.448a7.948 7.948 0 012.336 5.664c0 2.152-.832 4.16-2.336 5.664l-22.64 22.64c-3.008 3.008-8.312 3.008-11.328 0l-25.44-25.44c-2.576-2.584-6.576-3.08-9.728-1.232-9.616 5.68-20.04 10-30.968 12.824A7.988 7.988 0 00208 308v36c0 4.408-3.584 8-8 8h-32c-4.408 0-8-3.592-8-8v-36a8.002 8.002 0 00-6-7.744 119.948 119.948 0 01-30.976-12.824 7.915 7.915 0 00-4.064-1.112c-2.072 0-4.12.8-5.664 2.344l-25.44 25.44a8.025 8.025 0 01-11.328 0l-22.64-22.64c-3.128-3.128-3.128-8.208 0-11.328l25.44-25.44a7.99 7.99 0 001.232-9.72c-5.68-9.632-10-20.048-12.824-30.976A7.986 7.986 0 0060 208H24c-4.408 0-8-3.592-8-8v-32c0-4.408 3.592-8 8-8h36a8.002 8.002 0 007.744-6 119.948 119.948 0 0112.824-30.976 7.988 7.988 0 00-1.232-9.72l-25.44-25.44c-3.12-3.12-3.12-8.2 0-11.328l22.64-22.64c3.128-3.128 8.2-3.12 11.328 0l25.44 25.44a7.978 7.978 0 009.72 1.232c9.632-5.68 20.048-10 30.976-12.824A8.002 8.002 0 00160 60V24c0-4.408 3.592-8 8-8h32c4.416 0 8 3.592 8 8v36a8.002 8.002 0 006 7.744 119.827 119.827 0 0130.968 12.824c3.152 1.856 7.152 1.36 9.728-1.232l25.44-25.44c3.016-3.024 8.32-3.016 11.328 0l22.64 22.64c1.504 1.504 2.336 3.52 2.336 5.664s-.832 4.16-2.336 5.664l-25.44 25.44a8.002 8.002 0 00-1.232 9.72c5.688 9.632 10 20.048 12.832 30.976a7.986 7.986 0 007.736 6h36c4.416 0 8 3.592 8 8v32z"/><path d="M184 112c-39.696 0-72 32.304-72 72s32.304 72 72 72c39.704 0 72-32.304 72-72s-32.296-72-72-72zm0 128c-30.88 0-56-25.12-56-56s25.12-56 56-56c30.872 0 56 25.12 56 56s-25.128 56-56 56z"/></symbol><symbol viewBox="0 0 512.229 512.229" id="success" xmlns="http://www.w3.org/2000/svg"><path d="M99.564 156.4c.544 0 1.037-.4 1.256-1.019C115.012 113.3 164.103 90 205.677 105.52c.329.12.901-.073 1.219-.551 18.756-28.101 47.208-47.467 79.308-54.891-57.468-83.84-181.873-56.229-196.812 36.989-1.048 6.602-5.853 12.033-12.333 13.678-40.687 9.81-69.623 52.453-60.831 95.177C36.006 171.81 66.018 156.4 99.564 156.4zm339.453 32.733l-.001-.001c-12.764-3.092-22.216-13.376-24.079-26.203-13.655-90.485-131.527-117.054-182.623-40.995-8.111 12.152-23.297 17.236-36.923 12.362-26.067-9.719-56.866 4.886-65.761 31.278-4.527 12.792-16.609 21.385-30.066 21.385-102.423 4.242-102.376 150.179 0 154.399h80.272v-76.962c.807-20.273 29.759-20.257 30.559 0v21.016h99.543v-21.016c.807-20.273 29.759-20.257 30.559 0v76.962h80.272c90.992-1.943 106.203-129.071 18.248-152.225z"/><path d="M309.939 315.97h-99.543v25.256l.817.131h-31.376V497.03c.807 20.273 29.759 20.258 30.559 0v-16.041h99.543v16.041c.807 20.273 29.759 20.258 30.559 0V341.358h-30.559zm0 134.46h-99.543v-24.184h99.543zm0-54.743h-99.543v-23.901h99.543z"/></symbol><symbol viewBox="0 0 512 512" id="twitter" xmlns="http://www.w3.org/2000/svg"><path d="M512 97.248c-19.04 8.352-39.328 13.888-60.48 16.576 21.76-12.992 38.368-33.408 46.176-58.016-20.288 12.096-42.688 20.64-66.56 25.408C411.872 60.704 384.416 48 354.464 48c-58.112 0-104.896 47.168-104.896 104.992 0 8.32.704 16.32 2.432 23.936-87.264-4.256-164.48-46.08-216.352-109.792-9.056 15.712-14.368 33.696-14.368 53.056 0 36.352 18.72 68.576 46.624 87.232-16.864-.32-33.408-5.216-47.424-12.928v1.152c0 51.008 36.384 93.376 84.096 103.136-8.544 2.336-17.856 3.456-27.52 3.456-6.72 0-13.504-.384-19.872-1.792 13.6 41.568 52.192 72.128 98.08 73.12-35.712 27.936-81.056 44.768-130.144 44.768-8.608 0-16.864-.384-25.12-1.44C46.496 446.88 101.6 464 161.024 464c193.152 0 298.752-160 298.752-298.688 0-4.64-.16-9.12-.384-13.568 20.832-14.784 38.336-33.248 52.608-54.496z"/></symbol></svg>