<svg id="Layer_1" enable-background="new 0 0 512.229 512.229" height="512" viewBox="0 0 512.229 512.229" width="512" xmlns="http://www.w3.org/2000/svg"><g><path d="m99.564 156.4c.544 0 1.037-.4 1.256-1.019 14.192-42.081 63.283-65.381 104.857-49.861.329.12.901-.073 1.219-.551 18.756-28.101 47.208-47.467 79.308-54.891-57.468-83.84-181.873-56.229-196.812 36.989-1.048 6.602-5.853 12.033-12.333 13.678-40.687 9.81-69.623 52.453-60.831 95.177 19.778-24.112 49.79-39.522 83.336-39.522z"/><path d="m439.017 189.133c0-.001-.001-.001-.001-.001-12.764-3.092-22.216-13.376-24.079-26.203-13.655-90.485-131.527-117.054-182.623-40.995-8.111 12.152-23.297 17.236-36.923 12.362-26.067-9.719-56.866 4.886-65.761 31.278-4.527 12.792-16.609 21.385-30.066 21.385-102.423 4.242-102.376 150.179 0 154.399h80.272v-76.962c.807-20.273 29.759-20.257 30.559 0v21.016h99.543v-21.016c.807-20.273 29.759-20.257 30.559 0v76.962h80.272c90.992-1.943 106.203-129.071 18.248-152.225z"/><path d="m309.939 315.97h-99.543v25.256l.817.131h-31.376v155.673c.807 20.273 29.759 20.258 30.559 0v-16.041h99.543v16.041c.807 20.273 29.759 20.258 30.559 0v-155.672h-30.559zm0 134.46h-99.543v-24.184h99.543zm0-54.743h-99.543v-23.901h99.543z"/></g></svg>